<svg width="480" height="400" viewBox="0 0 480 400" fill="none" xmlns="http://www.w3.org/2000/svg">
<path d="M476.98 57.739C475.072 56.221 472.576 55.656 470.201 56.205L438.295 63.568C430.696 27.312 398.481 0 360 0C319.609 0 286.135 30.094 280.771 69.034L112.992 48.062C111.869 47.921 110.728 48.021 109.647 48.354L5.647 80.354C2.291 81.387 0 84.488 0 88V392C0 394.539 1.205 396.927 3.247 398.435C4.641 399.464 6.309 400 8.001 400C8.788 400 9.581 399.884 10.353 399.646L112.712 368.151L367.008 399.938C367.942 400.056 368.884 400.006 369.799 399.795L473.799 375.795C477.429 374.958 480 371.725 480 368V64C480 61.562 478.889 59.257 476.98 57.739ZM360 16C395.29 16 424 44.71 424 80C424 107.511 382.436 171.158 360 202.446C337.564 171.158 296 107.511 296 80C296 44.71 324.71 16 360 16ZM250.413 81.364L280.304 85.1C281.567 96.418 286.818 111.325 296 129.68V142.312L234.498 155.487L250.413 81.364ZM202.397 75.362L186.648 148.753L147.867 129.943C150.438 123.483 152 117.357 152 112C152 92.998 142.479 76.187 127.964 66.058L202.397 75.362ZM96 72C118.056 72 136 89.944 136 112C136 127.252 113.47 159.071 95.998 179.8C78.527 159.081 56 127.27 56 112C56 89.944 73.944 72 96 72ZM16 93.909L47.39 84.251C42.698 92.437 40 101.907 40 112C40 117.774 41.815 124.442 44.754 131.457L16 141.538V93.909ZM16 158.492L51.98 145.878C54.403 150.114 57.052 154.344 59.793 158.458L16 172.269V158.492ZM16 189.045L69.51 172.17C79.153 185.062 87.946 195.002 90.046 197.343C91.564 199.034 93.729 200 96 200C98.271 200 100.437 199.034 101.954 197.343C104.043 195.015 112.751 185.171 122.333 172.381L175.918 198.724L163.986 254.311L114.973 248.181C111.582 247.756 108.203 248.054 104.835 249.095L16 277.727V189.045ZM142.218 355.715L112.993 352.062C112.663 352.021 112.332 352 112.001 352C111.205 352 110.412 352.119 109.648 352.354L16 381.168V325.276L114.079 296.444L153.876 301.423L142.218 355.715ZM187.777 296.901L174.296 359.724L158.154 357.706L171.352 296.249C171.824 294.056 171.352 291.767 170.054 289.938C168.755 288.109 166.749 286.91 164.524 286.631L114.414 280.361C113.324 280.223 112.218 280.314 111.165 280.624L16 308.6V294.537L109.65 264.354C110.74 264.017 111.863 263.918 112.987 264.058L169.276 271.098C173.391 271.616 177.22 268.896 178.091 264.839L192.871 195.979C193.641 192.392 191.871 188.74 188.578 187.121L131.726 159.171C134.97 154.337 138.097 149.335 140.887 144.342L188.837 167.599C191.047 168.671 193.628 168.668 195.836 167.591C198.044 166.514 199.635 164.482 200.15 162.08L218.331 77.359L234.474 79.377L216.257 164.222C215.687 166.875 216.501 169.637 218.42 171.556C219.937 173.073 221.979 173.901 224.078 173.901C224.636 173.901 225.197 173.843 225.754 173.723L305.674 156.603C307.192 156.278 308.527 155.53 309.577 154.504C311.976 158.589 314.511 162.792 317.199 167.127C317.79 168.08 318.381 169.027 318.972 169.97L215.705 190.006C212.559 190.616 210.079 193.046 209.407 196.18L194.526 265.49C194.054 267.683 194.526 269.972 195.825 271.801C197.123 273.63 199.13 274.829 201.355 275.107L226.777 278.284C228.657 283.767 231.374 289.563 234.578 295.389L196.589 290.641C192.471 290.124 188.647 292.845 187.777 296.901ZM464 361.636L367.584 383.886L190.233 361.717L201.883 307.428L245.422 312.87C257.767 330.972 271.364 346.354 274.047 349.344C275.565 351.035 277.73 352.001 280.001 352.001C282.272 352.001 284.438 351.035 285.955 349.344C288.234 346.804 298.395 335.314 308.972 320.813L365.043 327.821C367.774 328.158 370.593 328.029 373.461 327.372L464 305.728V361.636ZM240 264C240 241.944 257.944 224 280 224C302.056 224 320 241.944 320 264C320 279.252 297.47 311.071 279.998 331.8C262.527 311.081 240 279.27 240 264ZM464 289.277L369.814 311.792C368.871 312.008 367.861 312.047 367.011 311.942L319.134 305.958C322.293 300.988 325.251 295.911 327.784 290.91L366.177 295.709C366.507 295.751 366.838 295.771 367.169 295.771C367.753 295.771 368.337 295.707 368.909 295.58L464 274.389V289.277ZM464 257.996L366.785 279.659L334.091 275.573C335.309 271.461 336 267.56 336 264C336 233.122 310.879 208 280 208C249.852 208 225.206 231.95 224.055 261.821L212.004 260.315L223.942 204.707L327.849 184.547L328.435 184.674C342.063 205.344 353.45 220.601 353.594 220.793C355.104 222.812 357.478 224.001 359.999 224.001C362.52 224.001 364.895 222.813 366.404 220.793C366.519 220.64 373.738 210.968 383.54 196.624L464 214.071V257.996ZM464 197.699L393.107 182.325C396.009 177.891 398.994 173.232 401.981 168.44L464 182.4V197.699ZM464 165.999L410.713 154.006C430.151 120.826 440 95.963 440 80C440 79.865 439.99 79.732 439.99 79.597L464 74.056V165.999Z" fill="black"/>
<path d="M408 80C408 53.533 386.468 32 360 32C333.532 32 312 53.533 312 80C312 106.467 333.532 128 360 128C386.468 128 408 106.467 408 80ZM328 80C328 62.355 342.355 48 360 48C377.645 48 392 62.355 392 80C392 97.645 377.645 112 360 112C342.355 112 328 97.645 328 80Z" fill="#EA580C"/>
<path d="M96 88C82.767 88 72 98.766 72 112C72 125.234 82.767 136 96 136C109.233 136 120 125.234 120 112C120 98.766 109.233 88 96 88ZM96 120C91.589 120 88 116.411 88 112C88 107.589 91.589 104 96 104C100.411 104 104 107.589 104 112C104 116.411 100.411 120 96 120Z" fill="#EA580C"/>
<path d="M304 264C304 250.766 293.233 240 280 240C266.767 240 256 250.766 256 264C256 277.234 266.767 288 280 288C293.233 288 304 277.234 304 264ZM272 264C272 259.589 275.589 256 280 256C284.411 256 288 259.589 288 264C288 268.411 284.411 272 280 272C275.589 272 272 268.411 272 264Z" fill="#EA580C"/>
</svg>
