<svg width="31" height="83" viewBox="0 0 31 83" fill="none" xmlns="http://www.w3.org/2000/svg">
<path d="M15.1528 16.1291C18.941 16.1291 22.0235 12.5091 22.0235 8.06285C22.0235 3.6164 18.941 0 15.1528 0C11.3609 0 8.27844 3.6164 8.27844 8.06285C8.27844 12.5091 11.3609 16.1291 15.1528 16.1291Z" fill="black"/>
<path d="M2.36947 52.7973C2.59982 53.0057 2.84116 52.9289 2.93624 52.8887C3.03131 52.8448 3.2507 52.7132 3.2507 52.4024C3.2507 52.3731 3.25436 52.3402 3.25802 52.311L4.90712 32.8433C4.95831 32.24 5.48852 31.7866 6.09187 31.8415C6.69519 31.8927 7.14496 32.4228 7.09376 33.0298L5.44464 52.4536C5.43732 52.9619 5.29473 53.4335 5.04243 53.8395C5.25816 54.5231 5.38979 55.2326 5.44098 55.9529L6.60011 63.5805L8.6734 77.2085C8.67707 77.2415 8.6807 77.2706 8.68436 77.3037C8.86353 80.1631 11.2074 82.4156 14.0522 82.4959V56.1248C14.0522 55.5178 14.5422 55.0279 15.1492 55.0279C15.7562 55.0279 16.2462 55.5178 16.2462 56.1248V82.4959C19.091 82.4156 21.4348 80.1631 21.614 77.3037C21.6177 77.2706 21.6213 77.2415 21.625 77.2085L23.6983 63.5805L24.8574 55.9529C24.9049 55.2326 25.0402 54.5195 25.2523 53.8357C25.0037 53.4335 24.861 52.9582 24.8501 52.4572L23.2046 33.0298C23.1534 32.4228 23.5995 31.8927 24.2065 31.8415C24.8062 31.7902 25.3401 32.24 25.3913 32.8433L27.0404 52.311C27.044 52.3402 27.044 52.3731 27.044 52.4024C27.044 52.7132 27.2671 52.8448 27.3585 52.8887C27.4536 52.9289 27.6986 53.0057 27.9289 52.7973L28.8613 51.9526C29.7718 51.1261 30.2984 49.9453 30.2984 48.7129V28.7992C30.2984 25.0988 27.4024 22.0235 23.7092 21.8005L15.1492 21.2813L6.58915 21.8005C2.89236 22.0235 0 25.0988 0 28.7992V48.7129C0 49.9453 0.522884 51.1261 1.43703 51.9526L2.36947 52.7973Z" fill="black"/>
</svg>
