<svg width="65" height="100" viewBox="0 0 65 100" fill="none" xmlns="http://www.w3.org/2000/svg">
<path d="M64.1265 32.0614C64.1265 14.3803 49.7427 0 32.065 0C14.3837 0 0 14.3803 0 32.0614C0 48.1885 27.0137 82.0877 32.065 88.2802C37.1127 82.0877 64.1265 48.1885 64.1265 32.0614ZM15.5214 32.0614C15.5214 22.939 22.9426 15.5179 32.065 15.5179C41.1874 15.5179 48.6085 22.939 48.6085 32.0614C48.6085 41.1839 41.1874 48.6051 32.065 48.6051C22.9426 48.6051 15.5214 41.1839 15.5214 32.0614Z" fill="#D6360E"/>
<path d="M32.065 91.7072C27.0767 91.7072 18.6299 92.5824 18.6299 95.8554C18.6299 99.1284 27.0767 100 32.065 100C37.0532 100 45.4966 99.1284 45.4966 95.8554C45.4966 92.5824 37.0532 91.7072 32.065 91.7072Z" fill="#D6360E"/>
</svg>
